<svg width="88" height="58" viewBox="0 0 88 58" fill="none" xmlns="http://www.w3.org/2000/svg">
<g clip-path="url(#clip0_3_22)">
<path d="M87.8634 13.6414C87.1729 13.5841 86.4778 13.6395 85.8052 13.8056C85.261 13.8056 82.8598 14.6406 83.1354 14.3496C84.2017 13.2016 85.9095 13.1493 86.8266 12.7764C87.3188 12.5827 87.6164 12.6197 87.4531 12.2249C87.2897 11.83 87.6023 11.6954 86.5435 11.9938C84.7021 12.4545 82.9419 13.1937 81.3237 14.1859C81.145 14.2927 80.9581 14.385 80.7646 14.4619C79.7132 14.9166 78.9375 15.9528 78.0055 16.6984C77.6401 16.7358 77.4833 16.4973 76.9986 16.7878C76.2977 16.7878 75.9847 16.1095 75.5074 15.7217C74.9707 15.5575 74.7616 14.976 74.2919 14.6107C71.3819 11.7477 68.0283 9.29502 65.1274 6.47696C64.2398 5.35098 63.8524 6.43207 62.9798 6.47696C62.5363 6.30495 62.0599 6.23396 61.5855 6.26914C61.5855 6.26914 60.9665 5.90379 61.1008 6.75378C61.2681 10.419 61.9175 14.0461 63.0322 17.5418C63.2417 17.9547 63.2913 18.4303 63.1715 18.8775C63.0517 19.3247 62.771 19.712 62.3833 19.965C62.0553 20.4421 62.3833 21.098 62.0328 21.5827C61.8761 21.8287 61.5406 22.0449 61.4437 22.3283C61.3469 22.6118 61.9659 22.813 62.0702 23.0141C62.1746 23.2153 62.6443 23.4539 62.9204 23.6555C63.144 23.6555 63.3452 23.4693 63.5693 23.4244C64.4344 23.0366 64.084 21.9929 64.3151 21.263C64.5314 20.8339 64.634 20.3565 64.6132 19.8764C64.4994 18.4477 64.1595 17.046 63.6063 15.7238C63.5492 14.4544 63.3132 13.1994 62.9054 11.9959C62.9054 11.0341 61.7048 7.96413 62.6668 7.66445C65.8807 10.4526 68.6323 14.2403 71.8088 17.2371C72.765 17.9379 73.8745 19.8091 74.6124 19.578C76.5733 19.1977 77.4759 19.578 77.6995 18.2284C78.0425 17.8706 78.4453 18.0717 78.7359 18.1453C80.1152 18.041 81.4875 17.6607 82.9043 17.5339C83.6052 17.3921 86.0222 17.5339 85.1936 16.3485C83.4189 16.1099 81.5324 17.1685 79.7893 16.8406C79.7893 16.4977 80.1996 16.4665 80.4453 16.4665C81.7952 16.0787 83.4281 14.9756 85.367 14.8114C86.0092 14.7894 86.6481 14.7096 87.276 14.5728C87.528 14.5315 87.7771 14.4742 88.0218 14.4012C88.0614 14.1371 88.0052 13.8676 87.8634 13.6414ZM74.8968 18.0626C71.8171 15.1697 68.2602 11.6509 65.1357 8.40762C65.0014 8.04227 64.3899 7.58756 64.1438 7.31905C63.9946 7.17732 64.1438 7.07299 64.2631 6.94497C66.2849 8.60758 68.1792 10.4193 69.9302 12.365C70.0589 12.5067 70.1978 12.6388 70.3459 12.7602C70.4564 12.7576 70.5668 12.7702 70.6739 12.7976C70.7408 12.835 70.7188 13.1181 70.7408 13.1405C71.8296 14.1023 73.6787 15.6082 74.693 16.7267C75.3362 17.4063 75.4031 17.9283 74.8968 18.0626ZM34.6304 35.3949C34.1607 35.5591 34.5473 36.9606 34.0339 37.311C33.1538 37.7063 33.4598 38.8618 32.7813 39.4133C32.5352 39.6444 32.3265 39.9499 31.9536 39.8456C31.5152 40.1446 31.0114 40.3339 30.4846 40.3974C29.9577 40.461 29.4233 40.3971 28.9264 40.2109C28.2999 40.0247 25.8018 39.4653 26.5626 40.77C26.7048 40.732 26.8558 40.7429 26.991 40.801C27.1263 40.8591 27.2381 40.9611 27.3084 41.0904C27.8156 41.5676 28.5684 41.3814 29.1725 41.5892C32.0879 43.0356 35.2419 39.755 34.9439 36.8093C34.6678 36.1829 35.451 35.6908 34.6159 35.3928L34.6304 35.3949ZM41.58 10.1359C41.7142 10.4638 42.0123 10.5099 42.162 10.8142C42.6317 11.3732 43.1759 10.5831 42.6093 10.2177C42.5049 9.85239 42.8703 9.33035 43.2802 9.47208C43.4964 9.54648 43.7425 9.89687 43.9662 9.68821C44.4434 9.50201 44.1524 9.05436 43.9662 8.71894C43.7051 8.17486 42.9685 8.10753 42.7506 7.54849C42.1391 7.09377 41.58 6.10953 40.8267 5.98276C40.5136 6.15442 39.8797 6.32567 40.0809 6.72842C40.6999 7.84692 40.983 9.04688 41.5646 10.1367L41.58 10.1359ZM45.5097 24.0553C44.4979 25.3681 43.6561 26.8035 43.0042 28.3273C43.0042 29.93 42.3391 30.9217 42.4895 32.3308C42.7979 32.4563 43.1432 32.4563 43.4515 32.3308C44.4359 31.4883 43.2723 27.2982 47.6644 23.2128C47.8431 23.0411 48.0597 22.6309 48.3058 22.9593C48.47 23.7049 47.4632 24.0923 47.3888 24.8529C46.1038 26.8684 45.5435 29.2612 45.8003 31.6375C46.2992 31.9135 46.4268 31.6375 46.7698 31.5406C47.5156 30.9816 47.2994 28.8938 47.4037 28.1631C47.5284 26.9033 49.2383 24.0029 49.8274 23.0636C50.1106 22.8211 50.4269 22.6203 50.7669 22.4671C51.1098 22.3778 51.3859 21.8258 51.7513 22.0515C51.9974 22.3794 51.5202 22.6704 51.3115 22.879C50.96 23.3228 50.738 23.855 50.67 24.4169C50.6311 24.5429 50.5812 24.6651 50.5208 24.7823C49.8793 25.9976 48.3807 30.0011 49.5813 30.9105C49.753 31.0352 49.8648 30.9936 50.1633 30.9849C51.0953 30.9849 50.2227 29.0094 50.6181 28.0995C52.236 25.1173 51.3639 23.1791 54.1517 21.2925C54.8974 20.8154 55.1136 21.3969 54.5765 21.9114C53.9575 23.2905 52.5395 27.0484 53.0853 28.2558C52.9436 28.4345 52.8018 29.0759 53.1747 29.277C53.1682 29.351 53.1838 29.4253 53.2197 29.4904C53.2555 29.5554 53.3099 29.6083 53.3759 29.6424C55.24 30.058 54.3154 26.5409 54.9864 25.4673C55.2845 22.7835 55.5684 21.2402 57.6112 19.965C58.2377 19.8232 58.9611 19.965 59.5277 19.5847C59.9975 18.9658 60.7582 18.6453 61.0189 17.8697C61.2795 17.0941 60.6086 17.1241 60.9295 16.2595C60.8177 15.3867 60.8401 14.5226 60.7952 13.641C60.2951 12.5724 59.7065 11.5474 59.0355 10.5769C58.2897 10.5769 58.6031 10.1296 58.357 9.8312C56.6296 9.52065 54.8874 9.29868 53.1373 9.16617C52.6152 8.72642 51.8847 8.86774 51.2732 8.62209C50.7885 8.4974 50.6172 7.97327 50.0801 7.97327C48.9856 7.86818 47.9308 7.50818 47.0005 6.92211C45.3451 5.96032 43.7579 4.97607 43.1601 4.68554C42.8321 4.51388 42.5486 4.96901 43.2432 5.91584C43.989 6.393 44.5182 6.43789 44.9136 7.06385C44.973 7.42171 46.6139 8.26422 47.4786 8.31618C47.6217 8.45004 47.791 8.55291 47.9758 8.61835C48.1605 8.68379 48.3568 8.71039 48.5524 8.69649C48.3128 8.96366 48.0978 9.2519 47.9101 9.5577C47.7982 9.75887 47.0899 10.2136 47.5821 10.3927C48.3279 10.5864 49.6328 8.15616 50.468 10.2585C50.8633 11.2278 48.4173 10.5345 47.6794 12.3313C47.5077 12.5549 47.232 12.6892 47.2096 12.2939C47.0604 12.0628 46.7623 12.0478 46.5536 11.8911C45.8078 11.3396 45.0624 12.2939 44.3166 12.3832C42.6837 13.4419 41.9379 12.5175 41.0358 11.0785C39.962 9.29668 39.5446 7.22428 38.687 5.41998C38.3133 4.58656 37.8971 3.7729 37.4398 2.98224C37.149 2.67777 36.9228 2.31768 36.7747 1.92359C36.9314 1.65509 36.9314 1.65509 37.2819 1.64013C37.6323 1.62516 38.2887 2.38579 38.773 2.23657C39.0117 2.23657 39.8693 2.49011 39.735 1.99051C39.4369 0.931871 37.6398 0.826713 36.825 0.312979C36.5826 0.162105 36.3151 0.0560881 36.0351 0C35.7442 0.100233 35.4863 0.278188 35.2893 0.514566C35.3862 2.63933 36.9522 4.56292 37.6173 6.47904C38.169 7.88058 38.4376 9.34947 39.0491 10.6986C39.1235 10.8104 39.4369 10.9447 39.4594 11.079C39.4818 11.2132 39.1833 11.3549 39.2952 11.5411C39.8248 12.0258 40.041 12.8159 40.5552 13.3604C40.8238 13.7707 41.6215 13.5096 42.0464 13.6439C42.5797 14.0173 43.1796 14.2854 43.8136 14.4336C44.7232 14.486 44.835 13.2557 45.6182 13.0695C45.9612 13.2037 46.4833 13.4851 46.8783 13.2411C47.876 12.9207 47.4673 13.9062 47.2586 14.3966C47.363 14.7844 46.8633 15.5895 47.3705 15.7537C47.8777 15.9179 48.2726 15.4627 48.3324 14.8887C48.3324 14.6427 48.3324 14.5458 48.3994 14.449C48.4663 14.3521 48.6679 14.5234 48.7199 14.449C48.7719 14.3746 48.8766 14.3659 48.9278 14.2848C49.1211 14.0011 49.286 13.699 49.42 13.3829C50.3894 12.2644 52.2385 11.4892 53.6478 11.0939C54.6767 11.3549 56.2801 10.8104 56.8767 11.899C57.1153 12.6447 58.0997 12.3837 58.256 13.0769C58.5765 14.5679 59.1136 16.5438 57.8237 17.6769C57.0779 18.3327 55.9072 18.3627 55.035 18.6981C54.3838 19.083 53.6875 19.386 52.9619 19.6C51.2246 20.3457 49.2333 19.6969 47.6078 20.48C47.1007 20.7855 46.6609 21.2256 46.1167 21.4866C45.7035 21.7038 45.2577 21.8524 44.7968 21.9264C44.2672 22.0457 44.1628 22.5083 43.9238 22.5823C43.3497 22.7685 43.0067 22.0382 42.4326 21.9335C41.8683 21.8589 41.2966 21.8589 40.7323 21.9335C39.6159 22.1271 38.4758 22.1423 37.3546 21.9783C36.9 21.7848 36.459 21.5606 36.0347 21.3075C35.7217 21.1957 35.1546 21.054 35.1546 21.054C35.1546 21.054 33.9906 21.7996 33.4323 21.6359C33.037 21.5315 33.1488 20.7859 32.4629 20.6441C32.0131 20.5094 31.5547 20.4049 31.091 20.3312C30.5287 20.3468 29.9695 20.2426 29.4506 20.0257C28.9359 19.7422 28.556 19.2131 27.9594 19.019C27.5121 18.8698 26.99 19.019 26.7123 18.5269C26.5122 18.0887 26.2 17.7111 25.8072 17.4322C25.4144 17.1534 24.955 16.9831 24.4753 16.9387C24.1993 16.9387 23.9606 17.2891 23.7744 17.1465C23.5882 17.0039 23.8638 16.7662 23.6912 16.5875C23.2664 16.1477 22.8636 15.7225 22.4162 15.3052C21.6704 14.1647 20.649 14.4552 19.7245 13.8143C18.9787 13.3072 18.6208 12.3234 17.6068 12.3234C16.2645 11.5777 15.7053 9.97501 14.1094 9.51281C12.4989 8.70771 11.3578 6.99277 9.59055 6.65735C8.02413 6.16356 7.0102 3.72582 5.24257 3.55416C4.1987 3.09945 3.0056 3.09197 2.06608 2.33134C1.46768 2.09903 0.848514 1.92423 0.216968 1.80929C0.0527598 1.98095 0.142555 2.33134 0.216968 2.55496C1.23838 3.52423 2.63311 3.8821 3.8707 4.52302C4.6165 4.87341 5.53357 4.78405 6.01081 5.52057C6.80067 6.17645 7.93475 6.95952 8.70258 7.70518C9.1727 7.74911 9.62663 7.89949 10.03 8.14493C10.2312 8.49532 10.3954 8.8906 10.8876 8.81578C12.1792 9.67817 13.4238 10.6089 14.6162 11.6039C16.6744 12.9311 18.6129 14.3251 20.5817 15.7267C22.7592 15.5924 22.871 18.2392 24.5339 19.0593C25.5703 19.6333 27.1138 19.3573 27.7927 20.5502C28.2251 21.199 26.965 21.2959 27.4797 21.8998C27.8152 22.5931 28.5759 21.5868 28.7996 22.8558C28.8871 23.3548 28.8461 23.8679 28.6803 24.3467C28.1814 25.5105 26.6744 25.8376 25.8093 26.7624C24.1606 27.1355 22.5428 27.6339 20.97 28.2533C20.6305 28.3528 20.2689 28.3477 19.9324 28.2386C19.5958 28.1295 19.3 27.9216 19.0834 27.6419C18.8983 27.2383 18.792 26.8031 18.7704 26.3596C18.2868 24.0446 17.4519 21.817 16.2948 19.7542C15.7227 18.4009 15.083 17.0771 14.3784 15.7878L12.8872 13.9174C12.6429 13.617 12.3791 13.333 12.0973 13.0674C11.8437 12.9481 11.9256 12.8438 12.0973 12.7095C12.269 12.5753 11.9036 12.4186 12.0973 12.2473C12.291 12.0761 12.5446 12.3591 12.6045 12.2473C12.6516 12.1239 12.6568 11.9884 12.6193 11.8617C12.5817 11.7351 12.5035 11.6243 12.3966 11.5466C11.6508 10.8757 11.3603 11.7627 9.77762 12.456C9.1661 12.7245 7.54065 12.1875 7.92851 12.978C7.99544 13.1027 8.37582 13.3808 8.13637 13.5894C7.89692 13.7981 7.61423 13.5225 7.43547 13.5894C5.19767 14.2827 2.81146 16.3776 0.626865 17.1083C0.75158 16.5118 0.17207 17.1532 0.17207 17.2724C0.169621 17.5223 0.189657 17.7719 0.231933 18.0181C1.30573 18.7114 2.5957 17.1681 3.60256 16.952C4.49012 16.6835 5.22802 16.9969 5.90688 16.2512C6.10809 15.9827 6.24237 15.5729 6.65268 15.5729C9.21017 14.7832 6.39909 17.228 6.33964 18.1449C6.16089 18.7713 5.59385 19.196 5.65371 19.8906C5.68327 20.2941 5.63258 20.6996 5.50457 21.0835C5.37656 21.4673 5.17378 21.8221 4.90792 22.1271C4.71923 22.5558 4.61304 23.0162 4.59488 23.4842C4.6323 23.983 5.38474 23.9988 5.51943 23.5366C6.08469 22.7056 6.51931 21.7929 6.80816 20.8303C6.96488 19.8835 7.47912 19.3394 7.65081 18.5938C7.69571 18.3477 8.44858 16.5509 8.63523 16.6332C9.33613 16.8493 8.3222 20.1819 8.08358 20.8158C8.2403 21.4646 7.33778 23.7531 7.33778 25.1327C7.33778 25.9976 7.5315 26.0571 8.08358 26.0496C9.04554 25.1996 8.64272 24.1709 8.94868 23.1866C9.2322 21.4347 9.83624 19.7048 9.91065 17.9009C9.77796 17.2161 9.87224 16.5068 10.1792 15.8805C10.1428 15.2366 10.2577 14.5932 10.5147 14.0018C11.1561 13.3978 11.4243 14.0612 11.6479 14.5982C11.6447 14.6179 11.648 14.6381 11.6575 14.6556C11.667 14.6731 11.6821 14.687 11.7003 14.695C11.9306 15.0862 12.1398 15.4894 12.3268 15.9029C13.0052 16.3352 12.7591 17.0359 13.5349 17.4911C13.6916 18.0352 13.9227 18.6914 14.4968 18.8926C15.8018 20.1898 15.0709 22.2847 16.2341 23.7012C16.2967 24.4022 16.3987 25.099 16.5397 25.7885C16.6745 26.4118 16.8875 27.0155 17.1736 27.5854C17.3563 28.1645 17.6066 28.72 17.9194 29.2405C17.9793 29.479 18.0313 29.7101 18.3223 29.755C19.4398 29.9404 20.5864 29.8299 21.648 29.4346C22.3938 29.3676 23.0273 28.728 23.8405 28.728C24.9068 28.8323 25.6971 27.826 26.6965 27.6918C27.6345 26.8407 28.6984 26.1397 29.8505 25.6136C30.5157 25.3081 30.9393 24.2195 31.6701 24.1227C31.9981 24.2793 31.6701 24.5383 31.6107 24.7266C31.5213 25.1144 31.9312 25.3825 32.0879 24.9951C32.2958 24.8459 32.5502 24.8014 32.677 24.5479C33.296 23.6085 34.0937 24.2569 33.2436 24.9951C32.689 25.8931 32.3828 26.9222 32.356 27.9773C32.3997 28.2037 32.4275 28.4329 32.4392 28.6631C32.3868 28.8273 32.0887 29.1478 32.0812 29.245C31.8651 30.93 33.1101 32.384 32.3943 34.091C31.947 34.9335 31.8796 35.9103 30.9626 36.4918C30.2916 36.924 30.1124 37.8414 29.1654 37.6921C27.2864 37.2225 24.6017 36.9988 22.8494 36.2457L22.3946 35.9847C21.5445 35.3957 19.8741 35.0603 19.0839 34.4938C18.5937 34.2758 18.118 34.0267 17.6596 33.7481C17.3911 33.5619 17.13 33.5839 16.8544 33.3678H16.8095L16.489 33.1292C14.58 32.1732 13.1557 30.4691 10.8739 31.2588C10.7022 31.3112 10.0387 31.2588 9.9568 31.4155C9.61383 32.0419 10.0611 31.9301 9.47955 32.5793C9.27835 32.6687 9.35484 32.9297 9.21848 33.1088C9.09977 33.5837 9.09977 34.0804 9.21848 34.5553C9.25063 34.6504 9.31546 34.7311 9.40146 34.783C9.48746 34.8349 9.58906 34.8546 9.68824 34.8387C9.77139 34.9356 9.8961 34.9506 10.0537 34.8387C10.7096 34.4451 11.3443 34.017 11.9551 33.5565C12.3505 33.1167 13.4463 33.3487 13.9834 33.4372C14.5205 33.5257 14.5725 33.7801 14.9229 34.1829C16.7575 34.6226 18.1963 36.0466 19.9116 36.7549C21.4913 38.0296 23.8638 38.0222 25.8771 38.2927C27.3209 39.0169 28.9132 39.3963 30.5285 39.4008C31.2743 39.0579 32.4824 38.8863 32.4824 37.8725C33.0707 36.867 33.5697 35.8118 33.9736 34.719C34.1523 34.5179 34.3091 34.1895 34.1814 34.0852C34.0661 33.9895 33.977 33.8662 33.9222 33.7267C33.8675 33.5872 33.849 33.4361 33.8684 33.2876C33.7267 30.8498 33.2943 28.3447 33.8684 25.9307C34.035 25.4726 34.3396 25.0774 34.7403 24.7997C35.1409 24.5219 35.6179 24.3753 36.1054 24.3799C36.4795 24.2606 36.8512 23.9252 37.2386 24.1264C37.6261 24.3276 39.4236 23.2319 39.3488 24.4244C39.0507 25.3043 38.2825 25.1701 37.8576 26.1838C37.6115 26.5043 37.4835 26.9295 37.1567 27.1531C36.83 27.3767 37.2311 28.1224 36.9555 28.5027C36.8758 28.6639 36.8157 28.8342 36.7768 29.0098C36.2377 30.1976 36.0789 31.523 36.322 32.8046C36.8291 33.0432 37.0004 33.0207 37.1796 32.9388C37.7836 32.6703 37.7238 31.6117 37.873 30.9483C38.3652 28.883 38.6188 26.9893 40.11 25.476C40.6467 25.1019 41.5193 23.4181 42.0639 24.2087C41.9595 24.902 42.0639 24.9544 41.7658 25.4556C41.7063 25.5525 41.93 25.6634 41.8182 25.8434C41.7063 26.0234 41.4602 25.9103 41.4024 26.0001C41.0555 26.4925 40.7344 27.0026 40.4405 27.5284C39.6217 29.1626 39.2438 30.9821 39.3442 32.8071C39.6573 33.2173 40.0451 33.0906 40.448 32.9189C41.1938 32.4642 40.7315 30.6823 40.8803 29.8548C41.1917 27.9632 44.808 22.5673 45.5089 24.0566L45.5097 24.0553ZM61.9147 44.1479C61.102 43.2605 62.0341 42.94 61.3032 42.9999C59.7746 42.4334 58.1937 41.9932 56.6202 41.5535C55.8744 41.3456 55.082 41.1378 54.3233 40.9046C53.5647 40.6715 52.8322 40.2633 52.0864 40.0247C51.353 39.7681 50.6063 39.5515 49.8494 39.3759C49.2296 39.3237 48.6263 39.1488 48.0747 38.8613C47.4096 38.3917 46.5012 38.5184 45.8377 38.1157C45.5841 37.8247 44.6521 38.1157 44.6895 37.5791C48.1196 36.4153 51.326 34.919 54.9648 34.5968C56.456 33.948 57.7015 31.9725 59.2001 31.2792C60.1022 30.9512 60.3932 29.8327 61.2209 29.4005C61.7875 29.1544 62.3991 29.6017 62.9669 29.4749C63.2205 29.3502 63.2504 28.5056 63.4067 28.3044C64.1525 27.7155 62.8701 26.9474 62.5046 26.5375C62.1542 25.7919 59.6038 28.9009 59.1789 29.3186C56.5915 32.1067 53.7804 32.9866 50.3948 34.0602C47.5365 34.9405 44.7677 36.0888 42.1254 37.4897C41.2308 38.3173 43.1618 38.1086 43.6166 38.5933C43.9595 38.9673 43.3185 39.048 43.0944 39.1897C41.8119 39.9354 45.3314 40.6212 45.7712 41.255C49.7518 43.2098 53.9088 44.7824 58.1866 45.9518C59.0442 46.2872 58.239 46.9435 58.3945 47.5695C58.2007 48.2033 58.1866 49.0159 57.9841 49.6643C57.4475 51.3568 57.5368 53.5115 57.1041 54.7638C56.6119 56.2028 56.0303 57.6642 56.5894 57.9996C57.0222 58.2015 57.5061 58.2672 57.9771 58.1879C58.0334 58.1799 58.0872 58.1596 58.1348 58.1284C58.1824 58.0973 58.2225 58.056 58.2524 58.0077C58.2823 57.9593 58.3011 57.9049 58.3076 57.8484C58.3142 57.7919 58.3082 57.7347 58.2901 57.6808C58.1558 57.3678 58.3645 57.2652 58.387 57.1143C58.6555 55.5116 59.3847 50.9486 59.4982 48.3318C59.4013 48.0038 59.5813 47.4298 59.923 47.8845C59.8279 48.8062 59.8558 49.7364 60.0062 50.6506C60.0995 51.1671 60.1394 51.6917 60.1255 52.2164C60.1224 52.6073 60.1423 52.9981 60.1849 53.3868C60.2519 53.849 60.3641 54.2887 60.461 54.7364C60.5354 55.0718 60.1849 55.3403 60.461 55.5261C60.737 55.7119 60.6688 56.4206 60.8114 56.7265C60.9083 57.6209 61.9372 57.3529 62.1463 56.7265C63.0039 55.8915 61.751 54.2214 61.8927 53.1254C61.5572 51.351 61.356 49.7171 60.9158 47.981C60.9759 47.4649 60.933 46.942 60.7897 46.4426C60.6463 45.9431 60.4053 45.4771 60.0806 45.0715C54.8281 43.5775 49.6773 41.7471 44.66 39.5916C44.2443 39.4873 44.66 38.9578 44.7943 38.9802C48.7615 40.2475 52.5715 42.0668 56.7254 43.0435C57.3162 43.1969 57.8924 43.4014 58.4477 43.6549C59.2375 44.0652 60.3417 43.7742 60.9906 44.5199C61.3864 45.2677 61.6534 46.0767 61.7805 46.9132C61.8549 47.338 61.9222 47.7706 62.0041 48.1954C62.086 48.6202 62.2727 49.008 62.3546 49.4257C62.4365 49.8434 62.5857 51.2375 63.1004 51.2895C63.615 51.3414 64.0623 51.528 64.3384 51.006C64.0711 49.8016 63.7172 48.6181 63.2795 47.4647C63.3007 46.1247 62.6073 45.2003 61.9139 44.1491L61.9147 44.1479ZM17.1732 31.2509C19.3059 31.916 22.6316 31.9966 24.1228 30.0871C24.272 28.8643 22.9588 29.9678 22.4004 30.004C21.0506 30.593 19.0597 30.8768 17.7698 30.1682C17.6131 29.9371 17.0988 30.3693 17.2851 30.6902C17.315 30.9978 16.9645 30.9305 17.1732 31.2509Z" fill="white"/>
<path d="M13.0348 34.3973C12.841 34.2111 12.7217 34.3973 12.5276 34.5017C10.723 35.6497 9.96261 36.1119 8.18044 37.3347C7.97258 37.5209 6.68926 38.6843 7.01643 38.8256C7.39681 39.2284 7.88153 38.6689 8.35129 38.6689C9.45502 37.9232 10.469 37.3418 11.5577 36.7453C12.5496 35.9103 13.0489 36.5591 13.7427 35.4032C14.4216 34.8816 13.2734 34.6363 13.0348 34.3973ZM5.30949 40.7716C3.98708 42.4018 2.4045 43.8023 0.625614 44.9168C0.685478 45.6625 0.625614 46.2141 0.946132 46.2215C1.48161 46.0084 1.98377 45.7197 2.43731 45.3641C2.75034 44.6783 3.01141 45.0062 3.265 44.7976C5.08459 43.3066 5.97922 41.5555 7.41094 40.4287C7.68074 38.5351 5.8387 40.1004 5.30949 40.7716ZM6.62191 38.0205C6.71848 37.7452 6.73915 37.449 6.68178 37.163C5.51777 37.163 3.61711 38.2815 2.58821 38.7512C2.27476 38.8894 1.93212 38.9483 1.59049 38.9229C1.22508 38.8854 0.844697 38.9229 0.844697 39.3256C0.868871 39.5195 0.845912 39.7164 0.777767 39.8996C0.598593 40.0858 0.166247 39.7749 0.278907 40.4661C1.23506 41.4504 3.79088 38.9752 4.81271 38.8485C4.60485 39.6382 3.63457 40.1307 3.16481 40.4736C2.41902 41.3905 0.226942 41.6374 0.346252 43.0381C0.301355 43.3885 0.152529 43.8582 0.689219 43.7838C1.75262 43.1724 5.73436 39.5563 6.62191 38.0205Z" fill="white"/>
</g>
<defs>
<clipPath id="clip0_3_22">
<rect width="88" height="58" fill="white"/>
</clipPath>
</defs>
</svg>
